<?xml version="1.0" standalone="no"?>
<!DOCTYPE svg PUBLIC "-//W3C//DTD SVG 20010904//EN"
 "http://www.w3.org/TR/2001/REC-SVG-20010904/DTD/svg10.dtd">
<svg version="1.0" xmlns="http://www.w3.org/2000/svg"
 width="1000.000000pt" height="780.000000pt" viewBox="0 0 1000.000000 780.000000"
 preserveAspectRatio="xMidYMid meet">

<g transform="translate(0.000000,780.000000) scale(0.100000,-0.100000)"
fill="#000000" stroke="none">
<path d="M0 3900 l0 -3900 5000 0 5000 0 0 3900 0 3900 -5000 0 -5000 0 0
-3900z m3970 2838 c82 -174 122 -307 155 -520 l6 -38 878 0 879 0 7 58 c10 88
41 221 70 308 30 88 134 314 145 314 3 0 14 -6 23 -13 16 -11 15 -19 -22 -107
-71 -169 -121 -380 -121 -507 l0 -53 40 0 40 0 0 -95 0 -95 -35 0 c-33 0 -35
-2 -35 -32 0 -49 44 -232 83 -350 43 -126 118 -298 265 -599 134 -275 196
-417 250 -569 236 -675 130 -1352 -291 -1848 -136 -161 -364 -339 -529 -413
-16 -7 -28 -15 -28 -18 0 -3 54 -32 119 -64 65 -31 167 -89 226 -128 106 -69
277 -201 283 -220 2 -5 -120 -9 -296 -9 l-301 0 -20 28 c-27 38 -99 76 -203
106 -416 120 -1154 63 -1298 -101 l-29 -33 -296 0 c-162 0 -295 3 -295 8 0 14
152 134 260 206 58 39 165 101 238 138 l132 67 -67 37 c-335 186 -581 444
-738 777 -116 247 -165 473 -166 762 0 397 76 664 356 1245 159 330 211 444
259 573 42 112 91 296 101 380 l7 57 -41 0 -41 0 0 95 0 95 46 0 47 0 -7 83
c-13 157 -58 332 -125 488 -38 86 -38 87 -17 97 12 6 22 11 24 11 2 1 30 -54
62 -121z m342 -229 c11 -6 26 -26 34 -46 20 -46 4 -97 -37 -118 -27 -15 -29
-19 -29 -76 0 -44 -3 -59 -12 -56 -9 3 -12 22 -10 60 3 52 2 58 -20 66 -34 13
-49 35 -55 80 -5 35 -2 44 25 71 32 32 68 38 104 19z m260 -19 c27 -27 30 -36
25 -71 -6 -45 -21 -67 -55 -80 -22 -8 -23 -14 -20 -66 2 -38 -1 -57 -9 -60
-10 -3 -13 12 -13 56 0 55 -2 63 -25 73 -38 17 -59 71 -45 113 23 70 90 86
142 35z m237 4 c25 -20 31 -34 31 -64 0 -40 -31 -90 -55 -90 -10 0 -15 -17
-17 -60 -4 -80 -22 -82 -26 -2 -2 45 -7 62 -17 62 -24 0 -55 50 -55 90 0 30 6
44 31 64 17 14 41 26 54 26 13 0 37 -12 54 -26z m233 15 c11 -6 26 -26 34 -46
20 -46 4 -97 -37 -118 -27 -15 -29 -19 -29 -76 0 -44 -3 -59 -12 -56 -9 3 -12
22 -10 60 3 53 2 58 -22 66 -29 12 -56 58 -56 96 0 35 50 85 85 85 14 0 35 -5
47 -11z m260 -19 c27 -27 30 -36 25 -71 -6 -45 -21 -67 -55 -80 -22 -8 -23
-14 -20 -66 2 -38 -1 -57 -9 -60 -10 -3 -13 12 -13 56 0 56 -2 61 -30 78 -41
24 -56 70 -36 116 27 65 88 76 138 27z m237 4 c25 -20 31 -34 31 -64 0 -40
-31 -90 -55 -90 -10 0 -15 -17 -17 -60 -4 -80 -22 -82 -26 -2 -2 45 -7 62 -17
62 -24 0 -55 50 -55 90 0 30 6 44 31 64 17 14 41 26 54 26 13 0 37 -12 54 -26z
m233 15 c11 -6 26 -26 34 -46 20 -46 4 -97 -37 -118 -27 -15 -29 -19 -29 -76
0 -44 -3 -59 -12 -56 -9 3 -12 22 -10 60 3 52 2 58 -20 66 -34 13 -49 35 -55
80 -5 35 -2 44 25 71 32 32 68 38 104 19z m-3476 -380 c-63 -50 -71 -131 -31
-324 31 -148 32 -205 4 -262 -31 -65 -99 -116 -253 -194 -77 -38 -148 -77
-158 -86 -25 -23 -22 -51 6 -64 34 -16 71 -4 98 32 94 123 144 153 253 153
124 1 239 -60 265 -139 31 -94 -51 -166 -211 -185 -197 -24 -299 -89 -364
-232 -32 -71 -41 -127 -22 -152 18 -25 44 -15 58 21 13 34 48 73 65 73 24 0
44 -43 44 -95 0 -28 -9 -100 -21 -161 -28 -148 -36 -378 -16 -506 14 -90 23
-114 105 -280 98 -196 175 -325 305 -508 215 -301 622 -640 1032 -860 l100
-54 -37 42 c-20 22 -42 60 -49 84 -16 61 -7 174 19 225 27 52 48 68 38 29 -9
-38 9 -97 49 -153 58 -83 86 -143 92 -201 6 -51 5 -54 -13 -44 -32 18 -72 65
-93 112 -24 52 -29 37 -6 -17 8 -20 14 -38 12 -40 -9 -8 -30 30 -47 84 -20 63
-27 53 -9 -12 15 -55 49 -101 60 -83 5 7 9 10 10 6 1 -5 3 -12 4 -18 1 -5 3
-14 4 -19 0 -5 38 -24 84 -41 151 -59 93 -51 -98 12 -144 48 -322 133 -467
225 -341 216 -669 566 -883 943 -27 47 -77 133 -112 192 -174 297 -276 563
-313 817 -20 135 -8 366 24 474 15 49 35 107 47 130 l20 42 -52 -55 c-100
-106 -146 -250 -136 -429 4 -58 13 -131 21 -161 9 -30 13 -56 11 -59 -9 -8
-114 226 -131 294 -12 47 -18 107 -18 185 -1 104 3 127 37 242 70 239 161 410
288 539 53 53 58 61 35 55 -148 -37 -308 -285 -411 -636 l-34 -115 0 110 c-2
517 259 900 717 1055 104 35 113 36 78 9z m5476 -5 c457 -144 729 -540 727
-1059 l0 -110 -34 115 c-69 237 -159 420 -259 528 -53 56 -135 112 -166 112
-5 0 16 -26 48 -58 123 -123 220 -304 287 -535 59 -202 57 -335 -6 -512 -28
-78 -97 -220 -105 -213 -2 2 4 28 12 58 8 30 18 103 21 161 10 180 -36 323
-136 429 l-52 55 20 -42 c50 -101 73 -211 78 -369 6 -171 -4 -261 -47 -430
-46 -176 -153 -424 -258 -596 -21 -35 -69 -117 -107 -183 -143 -253 -297 -455
-492 -646 -209 -205 -382 -330 -633 -455 -115 -57 -316 -132 -399 -148 -49 -9
-38 -3 58 34 58 23 79 35 70 41 -13 8 -6 13 13 10 5 0 7 2 7 7 -3 18 2 26 10
14 11 -18 45 28 60 83 18 65 11 75 -9 12 -17 -54 -38 -92 -47 -84 -2 2 4 20
12 40 23 54 18 69 -6 17 -21 -47 -61 -94 -93 -112 -18 -10 -19 -7 -13 45 6 58
34 123 74 171 41 49 65 107 66 157 1 55 9 54 39 -4 26 -51 35 -164 19 -225 -7
-23 -26 -58 -43 -78 l-32 -36 37 15 c97 41 316 178 482 302 418 311 670 616
906 1093 80 160 92 194 106 275 20 123 13 362 -16 511 -12 61 -21 133 -21 161
0 52 20 95 44 95 17 0 52 -39 65 -73 14 -36 40 -46 58 -21 19 25 10 81 -22
152 -65 143 -167 208 -364 232 -160 19 -242 91 -211 185 26 79 141 140 265
139 109 0 159 -30 253 -153 27 -36 64 -48 98 -32 28 13 31 41 6 64 -10 9 -81
48 -158 86 -154 78 -222 129 -253 194 -28 57 -27 114 4 262 40 193 32 274 -31
324 -34 26 -32 26 68 -5z m-5030 -1076 c87 -26 177 -145 194 -255 13 -89 -24
-208 -101 -322 -51 -76 -161 -200 -126 -141 85 140 116 242 108 360 -3 41 -10
86 -15 100 -8 20 -9 14 -5 -26 10 -92 -26 -242 -88 -365 -30 -61 -141 -230
-161 -247 -8 -6 2 21 20 59 44 90 75 242 69 331 -3 49 -12 79 -32 113 -29 50
-29 63 -4 157 9 37 9 53 0 76 -14 34 -59 57 -91 47 l-22 -7 18 32 c31 53 107
95 178 99 10 1 36 -4 58 -11z m4634 -3 c54 -17 91 -45 120 -89 l18 -29 -23 8
c-39 12 -79 -13 -93 -57 -10 -34 -9 -48 5 -88 23 -64 22 -84 -9 -136 -53 -90
-35 -291 39 -446 l35 -73 -32 38 c-52 61 -135 200 -171 284 -43 99 -69 228
-62 302 4 43 3 50 -5 31 -5 -14 -12 -59 -15 -100 -8 -118 23 -220 108 -360 35
-59 -75 65 -126 141 -77 114 -114 233 -101 322 17 110 110 233 194 255 53 14
62 14 118 -3z m-4073 -52 c60 -63 86 -165 68 -268 -32 -184 -132 -312 -292
-375 -28 -11 -48 -16 -44 -10 8 13 -1 13 -27 -1 -12 -6 8 16 43 49 58 54 129
156 117 168 -3 2 -22 -21 -43 -52 -50 -73 -135 -147 -210 -185 -72 -36 -77
-29 -42 59 38 93 98 172 207 273 154 143 214 245 192 331 -12 45 -5 48 31 11z
m3425 -11 c-22 -87 39 -190 194 -334 113 -104 165 -173 204 -270 36 -88 31
-95 -41 -59 -75 38 -160 112 -210 185 -21 31 -40 54 -43 52 -12 -12 59 -114
117 -168 35 -33 55 -55 43 -49 -26 14 -35 14 -27 1 4 -6 -16 -1 -44 10 -160
63 -260 191 -292 375 -18 103 8 205 68 268 36 37 43 34 31 -11z m-5682 -157
c271 -48 449 -160 621 -392 55 -74 153 -233 153 -249 0 -3 -21 22 -47 56 -104
139 -249 266 -409 360 -94 55 -101 50 -12 -9 179 -120 389 -364 543 -633 36
-64 27 -61 -20 7 -59 87 -185 199 -269 241 -62 30 -82 35 -132 33 -192 -7
-206 -5 -276 28 -91 43 -154 103 -189 181 -69 153 -177 267 -297 312 l-45 17
44 17 c56 21 163 44 210 45 20 1 76 -6 125 -14z m8131 -1 c42 -8 94 -23 116
-31 l39 -16 -44 -17 c-112 -42 -215 -146 -283 -286 -53 -108 -105 -161 -203
-207 -70 -33 -80 -34 -277 -28 -51 1 -71 -4 -132 -34 -83 -41 -209 -154 -268
-240 -47 -68 -56 -71 -20 -7 154 269 364 513 543 633 89 59 82 64 -12 9 -161
-94 -300 -216 -404 -354 -29 -38 -52 -66 -52 -62 0 16 97 174 153 249 170 229
349 343 614 391 104 19 140 19 230 0z m-6657 -244 c14 -4 20 -8 14 -9 -6 -1
-23 -13 -38 -27 -24 -24 -26 -34 -26 -105 l0 -78 -57 -43 c-32 -23 -79 -57
-104 -76 -48 -35 -89 -95 -89 -129 0 -31 29 -64 53 -61 17 2 21 9 19 28 -4 40
26 106 64 140 34 30 58 35 102 24 23 -7 23 -7 4 -28 -13 -14 -21 -40 -24 -78
-3 -41 -18 -83 -52 -155 -70 -143 -87 -197 -92 -298 -5 -85 4 -143 40 -250 3
-11 -16 25 -43 80 -68 139 -128 321 -142 432 -12 99 -3 201 25 285 23 64 11
58 -14 -9 -14 -36 -25 -91 -28 -143 l-6 -85 -12 40 c-31 99 -9 279 48 393 38
76 84 117 160 143 55 19 153 23 198 9z m5148 -5 c78 -23 132 -70 170 -147 57
-114 79 -294 48 -393 l-12 -40 -6 85 c-3 52 -14 107 -28 143 -25 67 -37 73
-14 9 28 -84 37 -186 25 -285 -14 -111 -74 -293 -142 -432 -27 -55 -46 -91
-43 -80 46 135 55 249 29 350 -9 33 -41 114 -72 179 -42 88 -58 134 -61 175
-3 37 -11 63 -24 77 -17 19 -17 22 -3 28 37 14 75 5 109 -24 38 -34 68 -100
64 -140 -4 -34 34 -40 56 -8 39 56 1 118 -131 213 l-98 70 -3 82 c-2 72 -6 84
-29 107 -14 14 -31 26 -37 27 -6 1 0 5 14 9 42 13 133 11 188 -5z m-4610 -390
c64 -35 88 -66 103 -134 9 -41 8 -61 -6 -108 -53 -185 -231 -295 -367 -227
-73 37 -93 131 -38 185 25 26 36 30 72 27 39 -3 45 -7 64 -43 33 -64 87 -57
133 19 44 70 27 148 -43 200 -43 33 -162 29 -239 -6 -133 -62 -267 -247 -303
-418 -32 -154 13 -351 126 -550 27 -47 28 -51 7 -25 -64 75 -138 240 -164 359
-20 93 -12 249 16 329 67 190 216 352 376 410 77 27 194 19 263 -18z m4206 -9
c129 -64 260 -222 317 -383 28 -80 36 -236 16 -329 -25 -119 -102 -284 -168
-364 -12 -14 -7 -2 11 30 76 134 125 279 135 402 14 160 -54 335 -180 464 -85
86 -155 123 -244 131 -74 7 -122 -9 -161 -53 -25 -29 -30 -43 -30 -88 0 -43 6
-61 30 -94 28 -40 64 -59 92 -50 7 3 22 22 33 44 18 35 24 39 63 42 116 9 143
-157 34 -212 -138 -69 -320 45 -367 230 -25 100 1 181 72 225 64 40 104 49
190 46 71 -3 92 -8 157 -41z m-5869 -55 c22 -5 8 -9 -55 -13 -78 -5 -207 -34
-197 -44 2 -2 28 1 58 8 75 17 303 17 354 -1 72 -25 199 -92 254 -134 95 -74
98 -78 21 -38 -102 55 -185 74 -283 69 -109 -7 -116 -23 -9 -25 95 -1 172 -22
256 -69 64 -36 179 -144 226 -214 38 -56 125 -225 93 -181 -98 137 -185 195
-333 226 -138 28 -188 57 -159 91 6 7 27 14 46 16 50 4 53 25 6 44 -26 11 -56
15 -98 11 -96 -7 -155 -45 -218 -141 -83 -126 -218 -88 -205 56 8 77 76 148
142 148 39 0 76 25 76 50 0 47 -30 35 -145 -58 -135 -111 -175 -119 -303 -67
-87 35 -138 41 -187 21 l-40 -17 50 51 c92 95 230 175 353 205 59 14 245 18
297 6z m7502 -6 c127 -30 264 -108 358 -205 l50 -51 -40 17 c-49 20 -99 14
-192 -23 -121 -50 -178 -35 -315 80 -94 81 -128 93 -128 48 0 -27 25 -43 82
-52 106 -17 171 -137 123 -229 -40 -77 -132 -64 -192 26 -39 59 -74 94 -116
115 -69 36 -179 37 -223 4 -16 -13 -17 -16 -4 -25 8 -5 27 -10 41 -10 36 0 56
-24 39 -46 -21 -24 -45 -34 -142 -54 -153 -33 -240 -86 -321 -194 -22 -28 -41
-53 -44 -56 -17 -17 77 155 112 205 129 183 341 298 520 283 27 -2 40 1 35 6
-5 5 -44 11 -87 14 -98 5 -181 -14 -283 -69 -77 -40 -74 -36 21 38 55 42 182
109 254 134 74 26 318 16 420 -16 20 -6 20 -6 0 6 -34 22 -156 49 -224 50 -55
1 -60 3 -31 9 62 13 223 10 287 -5z m-5980 -486 c34 -13 80 -55 99 -91 23 -45
19 -54 -26 -50 -35 4 -41 1 -51 -22 -10 -21 -9 -40 6 -99 l18 -72 -37 -71
c-23 -43 -40 -94 -45 -130 -14 -97 13 -218 65 -297 39 -60 22 -54 -37 12 -66
72 -113 149 -147 239 -24 61 -26 81 -27 209 0 131 -1 139 -13 105 -22 -60 -26
-207 -8 -283 16 -71 51 -153 87 -208 l23 -34 -28 18 c-15 10 -50 46 -77 79
-106 130 -152 274 -130 407 29 179 128 299 247 299 29 0 65 -5 81 -11z m4345
-18 c52 -33 79 -67 113 -146 77 -174 44 -361 -94 -531 -27 -33 -61 -69 -77
-78 l-27 -19 23 37 c76 124 104 230 97 361 -3 50 -11 107 -19 127 -12 34 -13
26 -13 -105 -1 -128 -3 -148 -27 -209 -34 -90 -81 -167 -147 -239 -59 -66 -77
-72 -37 -12 39 56 67 157 68 240 0 81 -12 124 -55 201 l-30 54 18 73 c15 61
17 79 7 100 -11 24 -17 27 -52 23 -29 -2 -40 0 -40 10 0 37 62 112 110 131 14
5 50 10 81 10 44 1 64 -5 101 -28z m-5373 -40 c71 -21 157 -59 149 -66 -2 -2
-30 5 -63 17 -118 40 -383 34 -457 -12 -61 -37 -107 -15 -74 36 14 20 39 32
101 48 49 12 271 -3 344 -23z m6599 14 c55 -17 87 -50 76 -79 -8 -22 -42 -20
-82 4 -68 42 -299 53 -418 21 -38 -10 -78 -22 -89 -26 -20 -7 -20 -6 -1 9 84
68 384 109 514 71z m-6482 -176 c116 -35 194 -90 287 -203 l42 -51 -42 37
c-62 55 -139 104 -213 135 -59 25 -76 27 -190 28 -106 0 -135 -4 -193 -23
-127 -44 -197 -124 -197 -225 0 -44 4 -54 39 -88 35 -35 44 -39 88 -39 36 0
58 6 77 21 32 25 32 30 1 67 -31 37 -32 68 -3 99 41 44 122 22 152 -42 34 -71
-3 -160 -84 -205 -38 -21 -59 -25 -126 -25 -73 0 -88 3 -149 35 -85 43 -115
91 -115 179 0 139 113 258 290 305 86 23 254 20 336 -5z m6369 -8 c151 -54
245 -166 245 -292 0 -88 -30 -136 -115 -179 -62 -32 -76 -35 -149 -35 -123 1
-192 45 -217 138 -8 30 -8 51 1 80 20 69 109 100 157 55 30 -28 29 -63 -2
-100 -31 -37 -31 -42 1 -67 19 -15 41 -21 77 -21 44 0 53 4 88 39 35 34 39 44
39 88 0 101 -71 182 -195 223 -210 70 -414 23 -597 -136 -35 -31 -38 -33 -18
-9 106 128 170 177 284 217 77 28 88 29 211 25 99 -4 144 -10 190 -26z m-5110
-257 c-51 -75 -42 -181 26 -310 53 -99 73 -192 64 -289 -4 -48 -11 -75 -19
-75 -17 0 -81 69 -101 110 -22 43 -44 124 -46 165 l-1 30 -8 -29 c-13 -40 5
-119 40 -184 19 -35 23 -49 12 -40 -9 9 -22 14 -27 12 -17 -7 -84 55 -113 104
-25 44 -27 55 -26 152 1 118 20 182 78 267 29 43 119 123 138 123 4 0 -3 -16
-17 -36z m3516 -6 c126 -104 192 -318 142 -463 -18 -53 -104 -150 -126 -142
-6 2 -20 -3 -31 -12 -13 -11 -9 1 13 40 36 64 54 144 41 185 l-8 29 -1 -30
c-2 -41 -24 -122 -46 -165 -20 -41 -84 -110 -101 -110 -19 0 -28 119 -14 197
7 40 30 106 56 160 73 152 81 240 29 317 -32 48 -17 45 46 -6z m-4478 -17 c34
-17 75 -42 92 -56 l29 -24 -69 25 c-57 21 -83 25 -140 22 -38 -3 -86 -12 -105
-21 -19 -10 -26 -15 -15 -11 115 35 277 -3 375 -87 l35 -30 -44 22 c-55 26
-146 36 -194 20 -20 -7 -53 -26 -74 -43 -34 -26 -43 -29 -84 -25 -56 7 -85 -9
-76 -42 8 -34 -30 -27 -68 13 -85 90 -34 208 114 263 58 21 151 11 224 -26z
m5655 8 c121 -60 153 -164 77 -245 -39 -41 -75 -46 -68 -10 7 33 -23 48 -79
40 -38 -5 -48 -2 -81 24 -21 17 -54 36 -74 43 -49 16 -140 6 -192 -21 -56 -28
-45 -11 22 33 82 55 168 80 252 74 39 -2 79 -7 90 -11 11 -3 4 1 -15 11 -19 9
-66 18 -105 21 -56 3 -83 -1 -137 -21 -38 -13 -68 -24 -68 -22 0 9 104 73 149
92 82 33 152 31 229 -8z m-5953 -342 c25 -52 97 -91 200 -107 201 -31 264 -52
344 -110 41 -30 43 -33 25 -43 -35 -20 -173 -12 -251 15 -39 13 -69 20 -66 15
9 -15 91 -48 142 -58 41 -7 39 -8 -25 -5 -72 3 -163 35 -209 74 -13 11 -12 8
4 -10 34 -39 99 -68 184 -83 l72 -12 -49 -8 c-120 -19 -232 20 -325 112 -76
76 -106 162 -85 241 9 31 16 27 39 -21z m6029 21 c21 -79 -9 -165 -85 -241
-93 -92 -205 -131 -325 -112 l-49 8 72 12 c85 15 150 44 184 83 16 18 17 21 4
10 -46 -39 -137 -71 -209 -74 -64 -3 -66 -2 -25 5 51 10 133 43 142 58 3 5
-27 -2 -66 -15 -79 -27 -217 -35 -251 -16 -17 11 -15 15 30 47 62 45 138 75
228 88 215 33 293 65 317 133 15 42 24 45 33 14z m-5384 -9 c42 -19 140 -104
140 -121 0 -4 -22 6 -49 22 -75 47 -71 35 7 -22 78 -56 87 -71 23 -38 -70 35
-45 14 34 -30 41 -23 73 -45 70 -50 -10 -16 -136 -23 -190 -11 -61 14 -106 55
-125 116 -17 55 -56 104 -88 111 -44 11 -48 17 -17 30 47 20 143 17 195 -7z
m4883 10 c39 -10 42 -29 5 -29 -30 0 -82 -60 -97 -111 -19 -65 -63 -106 -129
-120 -57 -11 -177 -4 -187 11 -3 5 28 28 70 50 79 44 104 65 34 30 -64 -33
-55 -18 23 38 78 57 82 69 7 22 -27 -16 -49 -26 -49 -22 0 17 98 102 140 121
50 23 124 27 183 10z m-4618 -313 c28 -7 70 -23 95 -35 25 -12 36 -18 25 -15
-109 36 -160 45 -240 47 -271 3 -521 -170 -574 -399 -10 -43 -10 -57 3 -88 16
-39 54 -63 83 -52 15 6 13 10 -14 21 -43 18 -46 63 -7 94 34 26 54 26 88 0 20
-15 26 -29 26 -57 0 -108 -121 -159 -194 -83 -39 41 -44 100 -18 188 55 180
202 311 417 372 84 23 236 27 310 7z m4475 -7 c222 -61 377 -201 425 -384 27
-105 17 -151 -44 -192 -40 -27 -71 -29 -111 -8 -62 32 -81 127 -34 164 15 12
34 21 44 21 32 0 70 -39 70 -71 0 -24 -6 -33 -32 -44 -28 -11 -30 -15 -15 -21
29 -11 67 13 83 53 15 34 14 43 -1 99 -47 176 -190 306 -400 366 -130 36 -239
30 -410 -26 -11 -3 0 4 25 15 73 35 129 47 230 48 68 1 117 -5 170 -20z
m-5213 -49 c37 -22 70 -40 74 -40 4 0 20 -5 35 -11 l28 -10 -52 -30 c-36 -20
-63 -46 -86 -82 -57 -88 -115 -127 -221 -146 -87 -16 -108 -12 -45 8 75 24
130 54 160 86 22 23 18 22 -28 -9 -55 -36 -164 -76 -210 -76 l-26 0 31 33 c37
39 55 74 76 148 19 64 65 136 98 155 45 25 95 17 166 -26z m5812 26 c33 -19
79 -91 98 -155 21 -74 39 -109 76 -148 l31 -33 -26 0 c-46 0 -155 40 -210 76
-46 31 -50 32 -28 9 30 -32 85 -62 160 -86 65 -21 33 -26 -52 -8 -103 22 -153
57 -217 152 -20 29 -51 58 -84 77 l-51 29 28 10 c15 6 30 11 34 11 4 0 36 18
72 40 70 42 124 51 169 26z m-5418 -54 c-48 -32 -63 -52 -111 -142 -35 -65
-64 -86 -76 -55 -17 45 70 152 161 198 66 34 78 34 26 -1z m526 9 c14 -8 -1
-10 -58 -11 -136 0 -231 -46 -289 -137 -42 -66 -37 -74 11 -20 68 78 220 136
358 137 106 0 310 -85 402 -169 l44 -41 -70 34 c-93 46 -146 62 -239 75 -102
14 -132 14 -148 -2 -28 -28 -58 -39 -74 -26 -19 16 -18 46 4 58 15 9 13 10 -9
11 -35 0 -92 -39 -103 -73 -7 -19 -6 -38 3 -62 7 -19 9 -39 6 -45 -11 -17 -44
-11 -55 10 -6 11 -15 18 -21 15 -15 -10 -10 -23 21 -55 37 -38 38 -64 5 -86
-36 -24 -48 -49 -35 -75 11 -19 9 -20 -27 -13 -125 23 -203 110 -203 229 0
165 153 270 377 260 46 -2 91 -9 100 -14z m4107 -13 c124 -53 170 -117 170
-233 0 -129 -65 -205 -197 -229 -36 -7 -38 -6 -27 13 13 26 0 54 -35 77 -33
21 -31 44 5 82 31 33 36 47 21 57 -6 3 -15 -4 -21 -15 -11 -20 -44 -27 -54
-12 -2 4 1 26 7 49 8 31 8 48 -1 67 -14 32 -68 66 -102 66 -22 -1 -23 -2 -7
-11 21 -12 22 -42 3 -58 -16 -13 -46 -2 -74 26 -16 15 -49 16 -148 3 -85 -11
-146 -30 -239 -76 l-70 -34 44 41 c91 82 258 155 382 166 134 12 303 -48 379
-134 47 -54 52 -46 10 20 -58 91 -153 137 -289 137 -66 1 -73 2 -53 13 14 8
60 12 130 11 90 -1 116 -5 166 -26z m254 3 c90 -45 175 -152 158 -197 -12 -32
-42 -7 -86 75 -36 66 -56 92 -94 118 -59 41 -53 42 22 4z m-7118 -1968 c18
-54 36 -101 39 -105 3 -4 22 39 42 95 28 83 39 103 56 105 21 3 20 0 -14 -95
-19 -54 -40 -113 -46 -131 -9 -27 -15 -32 -36 -30 -22 3 -29 16 -68 123 -24
65 -43 123 -43 127 0 4 8 8 18 8 15 0 26 -22 52 -97z m1121 68 c34 -34 37 -51
9 -51 -11 0 -20 4 -20 10 0 5 -11 17 -25 26 -34 22 -78 5 -73 -29 2 -17 15
-26 58 -40 83 -26 104 -73 55 -122 -41 -42 -131 -29 -154 22 -15 32 -14 33 8
33 10 0 21 -7 25 -15 16 -41 106 -38 106 4 0 25 -19 39 -61 47 -56 11 -79 30
-79 69 0 72 95 101 151 46z m609 -43 l0 -72 38 37 c21 20 46 37 57 37 16 0 12
-7 -18 -38 l-37 -38 40 -57 c39 -54 40 -57 18 -57 -15 1 -32 14 -50 40 -15 22
-32 40 -38 40 -5 0 -10 -18 -10 -40 0 -33 -3 -40 -20 -40 -19 0 -20 7 -20 130
0 123 1 130 20 130 18 0 20 -7 20 -72z m-1152 24 c2 -14 11 -22 23 -22 10 0
19 -7 19 -15 0 -8 -9 -15 -20 -15 -18 0 -20 -7 -20 -65 0 -58 2 -65 20 -65 11
0 20 -7 20 -16 0 -11 -8 -14 -32 -12 -32 3 -33 4 -36 58 -3 76 -10 100 -27
100 -8 0 -15 7 -15 15 0 8 9 15 20 15 15 0 20 7 20 26 0 31 23 28 28 -4z m650
0 c2 -14 11 -22 23 -22 10 0 19 -7 19 -15 0 -8 -9 -15 -20 -15 -18 0 -20 -7
-20 -65 0 -58 2 -65 20 -65 11 0 20 -7 20 -16 0 -11 -8 -14 -32 -12 l-33 3 -3
74 c-3 63 -6 74 -22 78 -26 7 -26 33 0 33 15 0 20 7 20 26 0 31 23 28 28 -4z
m-943 -47 c14 -13 25 -36 25 -50 0 -24 -2 -25 -65 -25 -69 0 -82 -12 -49 -44
20 -20 48 -20 68 -1 16 17 46 20 46 6 0 -18 -53 -51 -82 -51 -44 0 -88 48 -88
95 0 79 92 124 145 70z m189 4 c27 -22 35 -49 13 -49 -7 0 -20 9 -30 20 -34
40 -87 12 -87 -46 0 -58 52 -85 87 -44 20 23 43 26 43 6 0 -22 -49 -56 -82
-56 -19 0 -40 10 -59 29 -81 81 25 211 115 140z m317 -8 c21 -22 29 -39 29
-66 0 -48 -44 -95 -90 -95 -46 0 -90 47 -90 95 0 48 44 95 90 95 22 0 41 -9
61 -29z m99 19 c0 -7 6 -7 19 0 29 15 41 12 41 -10 0 -13 -7 -20 -18 -20 -31
0 -42 -22 -42 -87 0 -56 -2 -63 -20 -63 -19 0 -20 7 -20 95 0 88 1 95 20 95
11 0 20 -5 20 -10z m551 -19 c21 -22 29 -39 29 -66 0 -48 -44 -95 -90 -95 -46
0 -90 47 -90 95 0 48 44 95 90 95 22 0 41 -9 61 -29z m193 8 c27 -22 35 -49
13 -49 -7 0 -20 9 -30 20 -33 39 -87 12 -87 -43 0 -58 53 -87 87 -47 20 23 43
26 43 6 0 -22 -49 -56 -82 -56 -19 0 -40 10 -59 29 -81 81 25 211 115 140z
m6686 14 c0 -16 -63 -198 -71 -207 -22 -24 -16 9 18 107 20 59 40 107 45 107
4 0 8 -3 8 -7z m-1856 -71 c11 -34 23 -62 27 -62 4 0 17 29 29 65 13 39 27 65
36 65 10 0 6 -19 -16 -81 -17 -44 -30 -82 -30 -85 0 -2 -8 -4 -18 -4 -13 0
-25 20 -45 78 -31 87 -32 95 -15 90 7 -3 21 -32 32 -66z m760 52 c9 -8 16 -20
16 -25 0 -14 -20 -11 -36 6 -18 17 -24 18 -43 6 -23 -15 -6 -36 39 -50 38 -11
41 -14 38 -44 -2 -24 -10 -34 -29 -41 -36 -12 -76 0 -84 25 -10 30 2 36 25 11
24 -26 43 -28 60 -7 16 19 7 29 -42 44 -22 7 -40 21 -43 32 -15 46 63 79 99
43z m406 -31 l0 -47 30 29 c35 34 54 26 21 -9 l-23 -25 27 -35 c21 -28 24 -36
11 -36 -8 0 -23 11 -32 25 -9 14 -20 25 -25 25 -5 0 -9 -11 -9 -25 0 -16 -6
-25 -15 -25 -12 0 -15 16 -15 85 0 69 3 85 15 85 11 0 15 -12 15 -47z m801 37
c31 -17 24 -59 -18 -102 l-37 -38 42 0 c23 0 42 -4 42 -10 0 -6 -27 -10 -60
-10 -37 0 -60 4 -60 11 0 6 21 30 47 53 33 30 45 47 40 59 -11 29 -38 33 -58
9 -20 -26 -29 -28 -29 -8 0 37 51 57 91 36z m154 -10 c-16 -51 -66 -150 -76
-150 -12 0 -6 24 27 94 l24 51 -50 3 c-73 4 -61 22 16 22 61 0 65 -1 59 -20z
m125 -7 c17 -22 21 -37 17 -66 -15 -108 -127 -101 -127 8 0 80 66 114 110 58z
m155 7 c-16 -51 -66 -150 -76 -150 -12 0 -6 24 27 94 l24 51 -50 3 c-73 4 -61
22 16 22 61 0 65 -1 59 -20z m121 -1 c43 -47 14 -149 -43 -149 -38 0 -63 34
-63 85 0 75 62 112 106 64z m104 -64 c0 -69 -3 -85 -15 -85 -12 0 -15 15 -15
71 0 60 -2 70 -14 60 -9 -8 -16 -8 -20 -2 -4 5 4 17 16 25 43 30 48 22 48 -69z
m120 65 c45 -45 15 -150 -42 -150 -22 0 -58 26 -58 42 0 14 28 9 34 -7 11 -30
49 -14 61 25 6 20 5 23 -6 13 -31 -30 -89 -4 -89 39 0 52 63 75 100 38z m140
0 c45 -45 15 -150 -42 -150 -22 0 -58 26 -58 42 0 14 28 9 34 -7 11 -30 49
-14 61 25 6 20 5 23 -6 13 -31 -30 -89 -4 -89 39 0 52 63 75 100 38z m-2480
-5 c0 -8 7 -15 15 -15 8 0 15 -4 15 -10 0 -5 -7 -10 -15 -10 -11 0 -15 -12
-15 -45 0 -33 4 -45 15 -45 8 0 15 -4 15 -10 0 -16 -47 -11 -54 6 -3 9 -6 33
-6 54 0 21 -6 41 -12 44 -10 5 -10 7 0 12 6 3 12 12 12 20 0 8 7 14 15 14 8 0
15 -7 15 -15z m430 0 c0 -8 7 -15 15 -15 8 0 15 -4 15 -10 0 -5 -7 -10 -15
-10 -11 0 -15 -12 -15 -45 0 -33 4 -45 15 -45 8 0 15 -4 15 -10 0 -16 -47 -11
-54 6 -3 9 -6 33 -6 54 0 21 -6 41 -12 44 -10 5 -10 7 0 12 6 3 12 12 12 20 0
8 7 14 15 14 8 0 15 -7 15 -15z m-638 -32 c10 -9 18 -24 18 -35 0 -15 -8 -18
-45 -18 -47 0 -56 -9 -30 -30 13 -11 20 -11 40 0 31 16 42 8 20 -14 -36 -36
-95 -6 -95 47 0 57 52 86 92 50z m132 1 c18 -17 21 -34 7 -34 -5 0 -14 7 -21
15 -27 32 -67 4 -56 -40 8 -33 32 -42 55 -21 31 28 45 12 15 -18 -35 -36 -94
-6 -94 47 0 57 58 88 94 51z m216 -4 c56 -56 -23 -146 -82 -93 -10 9 -18 30
-18 46 0 60 59 88 100 47z m100 9 c0 -4 -9 -13 -20 -19 -15 -8 -20 -21 -20
-55 0 -33 -4 -45 -15 -45 -12 0 -15 14 -15 64 l0 64 35 0 c19 0 35 -4 35 -9z
m325 -3 c13 -9 19 -26 19 -51 0 -25 -6 -42 -19 -51 -42 -31 -95 -4 -95 49 0
56 51 85 95 53z m129 -2 c18 -17 21 -34 7 -34 -5 0 -14 7 -21 15 -18 22 -39
18 -51 -9 -21 -45 21 -87 51 -51 14 17 30 20 30 6 0 -17 -31 -41 -52 -41 -32
0 -58 29 -58 63 0 57 58 88 94 51z m310 0 c18 -17 21 -34 7 -34 -5 0 -14 7
-21 15 -27 32 -67 4 -56 -40 8 -33 32 -42 55 -21 31 28 45 12 15 -18 -35 -36
-94 -6 -94 47 0 57 58 88 94 51z m136 -4 c56 -56 -23 -146 -82 -93 -10 9 -18
30 -18 46 0 60 59 88 100 47z m198 7 c14 -10 17 -117 2 -117 -5 0 -10 20 -10
44 0 54 -24 81 -46 51 -8 -10 -14 -36 -14 -57 0 -58 -19 -45 -22 15 -3 44 -6
52 -23 52 -17 0 -20 -8 -23 -52 -2 -38 -7 -53 -18 -53 -11 0 -14 15 -14 64 l0
64 78 -2 c42 -1 83 -5 90 -9z m-448 -102 c0 -8 -7 -15 -15 -15 -8 0 -15 7 -15
15 0 8 7 15 15 15 8 0 15 -7 15 -15z"/>
<path d="M4062 6128 c-16 -16 -15 -33 4 -48 12 -11 52 -11 217 0 317 20 322
23 67 43 -264 21 -272 21 -288 5z"/>
<path d="M5630 6121 c-182 -15 -190 -17 -125 -23 171 -17 423 -31 438 -25 20
7 22 38 5 55 -15 15 -70 14 -318 -7z"/>
<path d="M4122 5882 c-29 -259 -87 -444 -290 -938 -208 -503 -261 -685 -282
-961 -37 -482 146 -956 480 -1241 191 -163 401 -265 667 -324 83 -18 130 -22
308 -22 227 -1 308 11 490 69 119 38 309 136 406 209 278 210 458 499 536 862
25 116 28 149 28 324 0 207 -8 268 -56 460 -41 165 -91 302 -252 690 -182 438
-251 679 -270 938 l-2 33 -876 4 -875 4 -12 -107z m158 -1609 c0 -955 -4
-1673 -9 -1668 -11 12 -24 2760 -15 3098 17 589 24 135 24 -1430z m243 1380
c8 -409 -4 -3153 -15 -3153 -4 0 -8 776 -8 1725 0 949 4 1725 8 1725 5 0 12
-133 15 -297z m247 -1458 c0 -1553 -2 -1755 -15 -1755 -13 0 -15 202 -15 1755
0 1553 2 1755 15 1755 13 0 15 -202 15 -1755z m240 -10 c0 -971 -4 -1765 -8
-1765 -11 0 -24 2717 -15 3178 3 193 10 352 15 352 4 0 8 -794 8 -1765z m243
1443 c9 -437 -4 -3188 -15 -3188 -4 0 -8 790 -8 1755 0 965 4 1755 8 1755 5 0
12 -145 15 -322z m245 -1400 c-2 -1366 -6 -1722 -15 -1726 -10 -3 -13 346 -13
1722 0 1529 2 1726 15 1726 13 0 15 -195 13 -1722z m242 53 c0 -919 -4 -1672
-8 -1675 -11 -7 -24 2637 -15 3042 3 166 10 302 15 302 4 0 8 -751 8 -1669z"/>
<path d="M3462 4253 c-58 -213 -78 -520 -48 -713 61 -388 204 -679 456 -930
224 -223 444 -348 688 -389 l105 -17 -184 -63 c-210 -72 -325 -123 -455 -204
-141 -87 -150 -102 -24 -38 482 248 903 300 1448 181 171 -37 398 -113 562
-188 71 -33 127 -56 125 -51 -11 16 -184 118 -302 177 -65 33 -199 88 -298
123 l-179 63 90 18 c211 41 355 105 527 234 406 305 641 785 640 1309 0 88 -5
198 -12 245 -13 89 -62 312 -68 306 -2 -1 6 -56 18 -122 25 -143 31 -432 10
-559 -84 -527 -372 -935 -817 -1158 -258 -129 -585 -194 -856 -168 -486 46
-874 252 -1141 606 -74 98 -180 303 -222 429 -86 257 -106 577 -55 871 10 60
17 111 16 112 -2 2 -12 -32 -24 -74z"/>
<path d="M3226 4571 c-32 -67 -91 -142 -146 -185 -47 -35 -45 -47 2 -18 66 42
133 125 163 205 26 68 14 67 -19 -2z"/>
<path d="M6746 4605 c18 -82 96 -190 170 -236 49 -30 52 -19 4 17 -51 38 -107
109 -148 186 -21 41 -30 52 -26 33z"/>
<path d="M3126 2787 c-14 -95 11 -184 63 -231 18 -16 16 -9 -11 42 -26 52 -32
78 -38 154 l-6 93 -8 -58z"/>
<path d="M6859 2753 c-4 -79 -10 -101 -37 -154 -27 -51 -29 -59 -11 -43 53 48
83 173 62 254 -9 31 -10 23 -14 -57z"/>
<path d="M532 428 c-22 -22 -13 -28 38 -28 48 0 50 1 40 20 -12 23 -59 27 -78
8z"/>
<path d="M1037 422 c-34 -38 -10 -112 36 -112 26 0 47 29 47 65 0 58 -49 85
-83 47z"/>
<path d="M1687 422 c-34 -38 -10 -112 36 -112 26 0 47 29 47 65 0 58 -49 85
-83 47z"/>
<path d="M8979 424 c-19 -23 -16 -81 4 -101 26 -27 51 -6 55 46 5 62 -28 92
-59 55z"/>
<path d="M9259 424 c-19 -23 -16 -81 4 -101 26 -27 51 -6 55 46 5 62 -28 92
-59 55z"/>
<path d="M9479 424 c-17 -21 0 -49 32 -49 18 0 25 6 27 24 6 38 -34 55 -59 25z"/>
<path d="M9619 424 c-17 -21 0 -49 32 -49 18 0 25 6 27 24 6 38 -34 55 -59 25z"/>
<path d="M6940 385 c-11 -13 -7 -15 25 -15 32 0 36 2 25 15 -7 8 -18 15 -25
15 -7 0 -18 -7 -25 -15z"/>
<path d="M7280 386 c-15 -19 -9 -56 12 -69 34 -22 66 41 36 71 -16 16 -33 15
-48 -2z"/>
<path d="M7710 385 c-15 -18 -5 -64 15 -72 35 -13 61 47 33 75 -16 16 -33 15
-48 -3z"/>
<path d="M8279 379 c-13 -25 2 -69 24 -69 19 0 37 21 37 45 0 43 -41 60 -61
24z"/>
</g>
</svg>
